<svg width="12" height="12" viewBox="0 0 12 12" fill="none" xmlns="http://www.w3.org/2000/svg">
<g id=".left-icon">
<path id="Vector" d="M6 0.999512C4.065 0.999512 2.5 2.56451 2.5 4.49951C2.5 7.12451 6 10.9995 6 10.9995C6 10.9995 9.5 7.12451 9.5 4.49951C9.5 2.56451 7.935 0.999512 6 0.999512ZM6 5.74951C5.66848 5.74951 5.35054 5.61782 5.11612 5.3834C4.8817 5.14897 4.75 4.83103 4.75 4.49951C4.75 4.16799 4.8817 3.85005 5.11612 3.61563C5.35054 3.38121 5.66848 3.24951 6 3.24951C6.33152 3.24951 6.64946 3.38121 6.88388 3.61563C7.1183 3.85005 7.25 4.16799 7.25 4.49951C7.25 4.83103 7.1183 5.14897 6.88388 5.3834C6.64946 5.61782 6.33152 5.74951 6 5.74951Z" fill="#4A5568"/>
</g>
</svg>
