<svg width="12" height="12" viewBox="0 0 12 12" fill="none" xmlns="http://www.w3.org/2000/svg">
<g id=".left-icon">
<path id="Vector (Stroke)" fill-rule="evenodd" clip-rule="evenodd" d="M6 1.49951C3.51472 1.49951 1.5 3.51423 1.5 5.99951C1.5 8.48479 3.51472 10.4995 6 10.4995C8.48528 10.4995 10.5 8.48479 10.5 5.99951C10.5 3.51423 8.48528 1.49951 6 1.49951ZM0.5 5.99951C0.5 2.96195 2.96243 0.499512 6 0.499512C9.03757 0.499512 11.5 2.96195 11.5 5.99951C11.5 9.03708 9.03757 11.4995 6 11.4995C2.96243 11.4995 0.5 9.03708 0.5 5.99951Z" fill="#4A5568"/>
<path id="Vector (Stroke)_2" fill-rule="evenodd" clip-rule="evenodd" d="M6 2.49951C6.27614 2.49951 6.5 2.72337 6.5 2.99951V5.69049L8.22361 6.5523C8.4706 6.67579 8.57071 6.97613 8.44721 7.22312C8.32372 7.47011 8.02338 7.57022 7.77639 7.44673L5.77639 6.44673C5.607 6.36203 5.5 6.1889 5.5 5.99951V2.99951C5.5 2.72337 5.72386 2.49951 6 2.49951Z" fill="#4A5568"/>
</g>
</svg>
